
<svg viewBox="0 0 9298 2362" fill="none" xmlns="http://www.w3.org/2000/svg">
<path d="M2940.84 52.841C4347.11 37.0624 5754.22 42.8386 7160.76 37.0625C7422.1 220.207 7656.8 245.424 7753.73 586.495C7862.91 971.239 7977.45 1114.09 8270.06 1380.78C8620.28 1700.01 8971.07 2008.4 9292 2358.49C6197.43 2354.26 3102.76 2354.26 8 2358.49C272.995 2149.14 614.912 2037.56 855.112 1802.99C1067.56 1596.18 1238.45 1392.75 1474.98 1207.35C1966.23 821.342 2371.55 305.58 2940.84 52.841Z" stroke="#4A3AFF" stroke-width="5" stroke-miterlimit="10"/>
<path d="M555.729 2009.38C996.261 2097.43 1448.06 2234.79 1900.15 2244.37C2218.25 2251.27 2526.78 2169.84 2832.77 2093.63C3142.71 2016.57 3450.39 1936.69 3772.16 1944.86C4093.93 1953.03 4408.09 2038.12 4720.43 2109.83C5390.31 2263.39 6032.58 2237.75 6715.29 2217.46C7052.27 2207.32 7393.63 2219.86 7729.62 2191.68C8131.27 2158.15 8522.08 2039.67 8917.95 1970.78" stroke="#4A3AFF" stroke-width="5" stroke-miterlimit="10"/>
<path d="M985.133 1657.17C1347.05 1684.65 1717.71 1721.98 2080.9 1688.45C2433.1 1655.91 2775.01 1554.05 3119.04 1477.13C3418.13 1410.07 3741.87 1335.26 4048.01 1395.42C4329.77 1450.79 4573.77 1615.76 4822.85 1749.59C5404.96 2062.91 5992.15 1997.96 6636.26 1996.13C6965.49 1995.15 7297.13 2006.56 7626.08 1993.46C7995.75 1979.37 8313.15 1854.41 8656.76 1726.77" stroke="#4A3AFF" stroke-width="5" stroke-miterlimit="10"/>
<path d="M1330.95 1320.19C1674.84 1319.48 2011.12 1325.54 2351.06 1263.83C2693.96 1201.99 3028.41 1101.26 3370.47 1035.05C3650.54 980.806 3937.23 936.429 4212.51 1032.79C4460.04 1118.87 4663.33 1287.22 4882.68 1424.86C5392.66 1745.08 5933.64 1674.08 6514.77 1687.6C7177.76 1703.24 7788.19 1742.12 8421.87 1518.55" stroke="#4A3AFF" stroke-width="5" stroke-miterlimit="10"/>
<path d="M1638.69 1078.59C2309.27 1076.9 2895.05 811.767 3544.65 691.174C4074.78 592.557 4451.92 776.97 4927.53 974.061C5359.33 1152.84 5806.34 1121.28 6264.06 1161.71C6871.4 1215.39 7452.39 1264.41 8060.99 1189.89" stroke="#4A3AFF" stroke-width="5" stroke-miterlimit="10"/>
<path d="M1904.17 870.096C2499.95 810.644 3036.7 533.815 3625.16 447.455C4108.09 377.015 4522.14 571.993 4968.31 720.904C5387.29 860.938 5812.32 843.469 6247.78 878.971C6785.52 922.785 7308.61 960.4 7848.88 931.801" stroke="#4A3AFF" stroke-width="5" stroke-miterlimit="10"/>
<path d="M2134.19 663.273C2635.87 548.174 3114.58 292.335 3630.9 246.972C4104.97 204.708 4565.92 392.923 5017.87 505.346C5891.33 722.724 6864.53 589.874 7758.83 607.202" stroke="#4A3AFF" stroke-width="5" stroke-miterlimit="10"/>
<path d="M2324.38 457.447C2759.28 316.567 3191.64 87.4955 3656.83 77.0703C4131.87 66.0817 4605.09 232.039 5065.63 325.16C5921.9 498.866 6800.57 335.726 7666.56 349.251" stroke="#4A3AFF" stroke-width="5" stroke-miterlimit="10"/>
<path d="M2498.06 276.562C2936.62 141.74 3373.91 -28.584 3840.65 8.04488C4258.21 40.8699 4666.49 146.671 5078.56 216.125C5886.65 352.637 6712.77 240.215 7527.76 233.735" stroke="#4A3AFF" stroke-width="5" stroke-miterlimit="10"/>
<path d="M2659.2 172.867C3059.58 96.3694 3455.59 23.8157 3864.99 42.1302C4267.2 60.1628 4665.33 126.659 5065.57 167.514C5834.63 245.139 6616.09 179.207 7387.41 172.163" stroke="#4A3AFF" stroke-width="5" stroke-miterlimit="10"/>
<path d="M2807.88 113.563C3560.32 55.9426 4300.08 95.1075 5052.38 120.889C5788.06 146.106 6526.27 118.212 7262.23 114.267" stroke="#4A3AFF" stroke-width="5" stroke-miterlimit="10"/>
<path d="M6774.32 38.332C7001.14 225.28 7185.84 272.475 7243.03 587.765C7269.24 732.73 7255.99 882.908 7309.67 1021.96C7380.11 1203.55 7544.94 1347.95 7673.84 1489.82C7814.72 1644.79 7950.67 1799.76 8079.44 1965.43C8186.08 2102.23 8339.36 2215.49 8433.61 2359.19" stroke="#4A3AFF" stroke-width="5" stroke-miterlimit="10"/>
<path d="M6388.55 40.1719C6586.77 236.559 6744.97 277.696 6759.91 584.673C6747.47 736.674 6752.62 889.602 6775.26 1040.42C6852.53 1195.45 6941.79 1344.2 7042.23 1485.32C7232 1769.05 7373.16 2093.64 7578.28 2358.78" stroke="#4A3AFF" stroke-width="5" stroke-miterlimit="10"/>
<path d="M6003.43 41.9883C6186.58 271.764 6306.61 322.34 6276.46 641.574C6248.28 944.748 6293.22 1158.74 6384.65 1450.93C6479.32 1753.82 6575.12 2081.37 6725.72 2358.62" stroke="#4A3AFF" stroke-width="5" stroke-miterlimit="10"/>
<path d="M5618.67 43.6953C5732.5 303.337 5855.63 324.751 5781.53 637.223C5717.42 907.995 5725.88 1147.21 5734.89 1426.15C5745.18 1743.55 5765.18 2063.63 5875.77 2359.2" stroke="#4A3AFF" stroke-width="5" stroke-miterlimit="10"/>
<path d="M5234.68 46.2305C5246.02 122.77 5274.06 195.877 5316.81 260.368C5325.48 374.514 5305.58 489.02 5258.91 593.55C5186.5 844.035 5164.38 1078.04 5146.21 1337.96C5122.82 1678.61 5106.05 2025.88 5028.29 2359.06" stroke="#4A3AFF" stroke-width="5" stroke-miterlimit="10"/>
<path d="M4851.14 47.082C4759.2 381.526 4684.43 720.457 4627.14 1062.55C4548.25 1517.73 4326.93 1919.8 4185.2 2358.64" stroke="#4A3AFF" stroke-width="5" stroke-miterlimit="10"/>
<path d="M4467.09 46.918C4418.62 98.6679 4364.67 106.322 4305.21 69.8811C4220.69 110.924 4185.14 179.908 4198.57 276.834C4210.12 363.986 4210.12 452.282 4198.57 539.435C4155.33 638.152 4118.94 739.732 4089.67 843.454C3915.96 1370.91 3596.59 1863.43 3343 2358.06" stroke="#4A3AFF" stroke-width="5" stroke-miterlimit="10"/>
<path d="M4083.94 47.2073C3954.19 115.816 3908.97 -10.5536 3792.88 22.9759C3649.89 64.3946 3701.87 180.903 3683.13 293.043C3645.94 514.366 3564.8 671.588 3461.25 875.864C3308.82 1176.22 3135.53 1459.95 2994.65 1766.23C2922.8 1921.9 2872.37 2068.84 2745.15 2188.87C2676.69 2253.81 2578.63 2293.12 2506.64 2358.77" stroke="#4A3AFF" stroke-width="5" stroke-miterlimit="10"/>
<path d="M3702.76 49.4652C3561.04 99.7594 3424.95 -23.9335 3296.04 64.6801C3217.29 118.778 3188.83 276.986 3163.33 360.528C3084.02 621.297 2923.84 825.433 2767.32 1045.21C2538.53 1366.13 2426.25 1625.35 2264.1 1986.14C2205.21 2117.3 2180.41 2202.11 2049.96 2262.97C1929.93 2319.33 1797.64 2301.15 1670.71 2358.77" stroke="#4A3AFF" stroke-width="5" stroke-miterlimit="10"/>
<path d="M3321.2 49.3086C3180.32 98.3349 3015.91 75.935 2891.51 167.789C2775.71 253.162 2713.44 416.16 2639.62 533.091C2484.65 778.081 2290.8 983.907 2088.07 1189.87C2000.73 1278.63 1888.73 1358.93 1812.8 1457.55C1690.65 1616.6 1651.35 1818.2 1546.67 1986.69C1386.49 2244.93 1078.67 2207.73 837.764 2358.47" stroke="#4A3AFF" stroke-width="5" stroke-miterlimit="10"/>
</svg>
